<mxfile host="app.diagrams.net" modified="2024-09-02T01:17:19.982Z" agent="Mozilla/5.0 (Windows NT 10.0; Win64; x64) AppleWebKit/537.36 (KHTML, like Gecko) Chrome/128.0.0.0 Safari/537.36" etag="QP2XhR_6xje4u_2t1Xv6" version="24.6.4" type="github">
  <diagram id="C5RBs43oDa-KdzZeNtuy" name="Page-1">
    <mxGraphModel dx="1434" dy="3084" grid="1" gridSize="10" guides="1" tooltips="1" connect="1" arrows="1" fold="1" page="1" pageScale="1" pageWidth="827" pageHeight="1169" math="0" shadow="0">
      <root>
        <mxCell id="WIyWlLk6GJQsqaUBKTNV-0" />
        <mxCell id="WIyWlLk6GJQsqaUBKTNV-1" parent="WIyWlLk6GJQsqaUBKTNV-0" />
        <mxCell id="kCE3X-bR1YBws0et_Grn-0" value="learning history&amp;nbsp;&lt;div&gt;API 호출&lt;/div&gt;" style="strokeWidth=2;html=1;shape=mxgraph.flowchart.terminator;whiteSpace=wrap;sketch=1;hachureGap=4;jiggle=2;curveFitting=1;fontFamily=Courier New;labelBackgroundColor=none;fontStyle=1;fillColor=#eeeeee;strokeColor=#36393d;fontSize=11;" parent="WIyWlLk6GJQsqaUBKTNV-1" vertex="1">
          <mxGeometry x="217.46" y="-2320" width="157.42" height="60" as="geometry" />
        </mxCell>
        <mxCell id="kCE3X-bR1YBws0et_Grn-1" value="" style="endArrow=classic;html=1;rounded=0;sketch=1;hachureGap=4;jiggle=2;curveFitting=1;fontFamily=Courier New;exitX=0.5;exitY=1;exitDx=0;exitDy=0;exitPerimeter=0;entryX=0.5;entryY=0;entryDx=0;entryDy=0;entryPerimeter=0;fillColor=#eeeeee;strokeColor=#36393d;fontSize=11;fontStyle=1" parent="WIyWlLk6GJQsqaUBKTNV-1" source="kCE3X-bR1YBws0et_Grn-0" target="kCE3X-bR1YBws0et_Grn-2" edge="1">
          <mxGeometry width="50" height="50" relative="1" as="geometry">
            <mxPoint x="294.61" y="-2230" as="sourcePoint" />
            <mxPoint x="295.03" y="-2210" as="targetPoint" />
          </mxGeometry>
        </mxCell>
        <mxCell id="kCE3X-bR1YBws0et_Grn-2" value="회원의 CF-User-Based&lt;div style=&quot;font-size: 11px;&quot;&gt;알고리즘 결과가&lt;/div&gt;&lt;div style=&quot;font-size: 11px;&quot;&gt;존재하는가?&lt;/div&gt;" style="strokeWidth=2;html=1;shape=mxgraph.flowchart.decision;whiteSpace=wrap;sketch=1;hachureGap=4;jiggle=2;curveFitting=1;fontFamily=Courier New;fillColor=#eeeeee;strokeColor=#36393d;fontSize=11;fontStyle=1" parent="WIyWlLk6GJQsqaUBKTNV-1" vertex="1">
          <mxGeometry x="200" y="-2195" width="190" height="125" as="geometry" />
        </mxCell>
        <mxCell id="kCE3X-bR1YBws0et_Grn-3" value="" style="endArrow=classic;html=1;rounded=0;sketch=1;hachureGap=4;jiggle=2;curveFitting=1;fontFamily=Courier New;exitX=1;exitY=0.5;exitDx=0;exitDy=0;exitPerimeter=0;entryX=0;entryY=0.5;entryDx=0;entryDy=0;fillColor=#eeeeee;strokeColor=#36393d;fontSize=11;fontStyle=1" parent="WIyWlLk6GJQsqaUBKTNV-1" source="kCE3X-bR1YBws0et_Grn-2" target="kCE3X-bR1YBws0et_Grn-5" edge="1">
          <mxGeometry width="50" height="50" relative="1" as="geometry">
            <mxPoint x="560.03" y="-2120" as="sourcePoint" />
            <mxPoint x="436.28" y="-2150" as="targetPoint" />
          </mxGeometry>
        </mxCell>
        <mxCell id="kCE3X-bR1YBws0et_Grn-4" value="NO" style="text;html=1;align=center;verticalAlign=middle;whiteSpace=wrap;rounded=0;fontFamily=Courier New;fontSize=12;fillColor=none;fontStyle=1;fontColor=#FF432E;" parent="WIyWlLk6GJQsqaUBKTNV-1" vertex="1">
          <mxGeometry x="392.64" y="-2167.5" width="60" height="30" as="geometry" />
        </mxCell>
        <mxCell id="kCE3X-bR1YBws0et_Grn-5" value="&lt;div style=&quot;font-size: 11px;&quot;&gt;결과 list append&lt;/div&gt;&lt;div style=&quot;font-size: 11px;&quot;&gt;하지 않음&lt;/div&gt;" style="rounded=1;whiteSpace=wrap;html=1;absoluteArcSize=1;arcSize=14;strokeWidth=2;sketch=1;hachureGap=4;jiggle=2;curveFitting=1;fontFamily=Courier New;fillColor=#eeeeee;strokeColor=#36393d;fontSize=11;fontStyle=1" parent="WIyWlLk6GJQsqaUBKTNV-1" vertex="1">
          <mxGeometry x="455.56" y="-2167.5" width="139.38" height="70" as="geometry" />
        </mxCell>
        <mxCell id="kCE3X-bR1YBws0et_Grn-6" value="YES" style="text;html=1;align=center;verticalAlign=middle;whiteSpace=wrap;rounded=0;fontFamily=Courier New;fontSize=11;fillColor=none;fontStyle=1;fontColor=#3E17FF;" parent="WIyWlLk6GJQsqaUBKTNV-1" vertex="1">
          <mxGeometry x="314.88" y="-2050" width="60" height="30" as="geometry" />
        </mxCell>
        <mxCell id="kCE3X-bR1YBws0et_Grn-7" value="" style="endArrow=classic;html=1;rounded=0;sketch=1;hachureGap=4;jiggle=2;curveFitting=1;fontFamily=Courier New;exitX=0.5;exitY=1;exitDx=0;exitDy=0;exitPerimeter=0;fillColor=#eeeeee;strokeColor=#36393d;entryX=0.5;entryY=0;entryDx=0;entryDy=0;fontSize=11;fontStyle=1" parent="WIyWlLk6GJQsqaUBKTNV-1" source="kCE3X-bR1YBws0et_Grn-2" target="kCE3X-bR1YBws0et_Grn-8" edge="1">
          <mxGeometry width="50" height="50" relative="1" as="geometry">
            <mxPoint x="294.71000000000004" y="-2050" as="sourcePoint" />
            <mxPoint x="294.56" y="-2000" as="targetPoint" />
          </mxGeometry>
        </mxCell>
        <mxCell id="kCE3X-bR1YBws0et_Grn-8" value="&lt;div style=&quot;font-size: 11px;&quot;&gt;Similarity&amp;nbsp;&lt;span style=&quot;background-color: initial; font-size: 11px;&quot;&gt;높은 순으로&lt;/span&gt;&lt;/div&gt;&lt;div style=&quot;font-size: 11px;&quot;&gt;&lt;span style=&quot;background-color: initial; font-size: 11px;&quot;&gt;강좌번호를&amp;nbsp;&lt;/span&gt;&lt;span style=&quot;background-color: initial; font-size: 11px;&quot;&gt;정렬&lt;/span&gt;&lt;/div&gt;&lt;div style=&quot;font-size: 11px;&quot;&gt;list append&lt;/div&gt;" style="rounded=1;whiteSpace=wrap;html=1;absoluteArcSize=1;arcSize=14;strokeWidth=2;sketch=1;hachureGap=4;jiggle=2;curveFitting=1;fontFamily=Courier New;fillColor=#eeeeee;strokeColor=#36393d;fontSize=11;fontStyle=1" parent="WIyWlLk6GJQsqaUBKTNV-1" vertex="1">
          <mxGeometry x="225.30999999999995" y="-2000" width="139.38" height="70" as="geometry" />
        </mxCell>
        <mxCell id="kCE3X-bR1YBws0et_Grn-9" value="" style="endArrow=classic;html=1;rounded=0;sketch=1;hachureGap=4;jiggle=2;curveFitting=1;fontFamily=Courier New;exitX=0.5;exitY=1;exitDx=0;exitDy=0;fillColor=#eeeeee;strokeColor=#36393d;entryX=0.5;entryY=0;entryDx=0;entryDy=0;entryPerimeter=0;fontSize=11;fontStyle=1" parent="WIyWlLk6GJQsqaUBKTNV-1" source="kCE3X-bR1YBws0et_Grn-8" target="kCE3X-bR1YBws0et_Grn-10" edge="1">
          <mxGeometry width="50" height="50" relative="1" as="geometry">
            <mxPoint x="294.5" y="-1870" as="sourcePoint" />
            <mxPoint x="294.56" y="-1850" as="targetPoint" />
          </mxGeometry>
        </mxCell>
        <mxCell id="kCE3X-bR1YBws0et_Grn-10" value="회원의 Segmentation&lt;div style=&quot;font-size: 11px;&quot;&gt;알고리즘 결과가&lt;/div&gt;&lt;div style=&quot;font-size: 11px;&quot;&gt;존재하는가?&lt;/div&gt;" style="strokeWidth=2;html=1;shape=mxgraph.flowchart.decision;whiteSpace=wrap;sketch=1;hachureGap=4;jiggle=2;curveFitting=1;fontFamily=Courier New;fillColor=#eeeeee;strokeColor=#36393d;fontSize=11;fontStyle=1" parent="WIyWlLk6GJQsqaUBKTNV-1" vertex="1">
          <mxGeometry x="200" y="-1870" width="190" height="125" as="geometry" />
        </mxCell>
        <mxCell id="kCE3X-bR1YBws0et_Grn-11" value="&lt;div style=&quot;font-size: 11px;&quot;&gt;seg count&amp;nbsp;&lt;span style=&quot;background-color: initial; font-size: 11px;&quot;&gt;높은 순으로&lt;/span&gt;&lt;/div&gt;&lt;div style=&quot;font-size: 11px;&quot;&gt;&lt;span style=&quot;background-color: initial; font-size: 11px;&quot;&gt;강좌번호를&amp;nbsp;&lt;/span&gt;&lt;span style=&quot;background-color: initial; font-size: 11px;&quot;&gt;정렬 하여&lt;/span&gt;&lt;/div&gt;&lt;div style=&quot;font-size: 11px;&quot;&gt;list append&lt;/div&gt;" style="rounded=1;whiteSpace=wrap;html=1;absoluteArcSize=1;arcSize=14;strokeWidth=2;sketch=1;hachureGap=4;jiggle=2;curveFitting=1;fontFamily=Courier New;fillColor=#eeeeee;strokeColor=#36393d;fontSize=11;fontStyle=1" parent="WIyWlLk6GJQsqaUBKTNV-1" vertex="1">
          <mxGeometry x="225.30999999999995" y="-1680" width="139.38" height="70" as="geometry" />
        </mxCell>
        <mxCell id="kCE3X-bR1YBws0et_Grn-12" value="" style="endArrow=classic;html=1;rounded=0;sketch=1;hachureGap=4;jiggle=2;curveFitting=1;fontFamily=Courier New;exitX=0.5;exitY=1;exitDx=0;exitDy=0;fillColor=#eeeeee;strokeColor=#36393d;exitPerimeter=0;fontSize=11;fontStyle=1" parent="WIyWlLk6GJQsqaUBKTNV-1" source="kCE3X-bR1YBws0et_Grn-10" target="kCE3X-bR1YBws0et_Grn-11" edge="1">
          <mxGeometry width="50" height="50" relative="1" as="geometry">
            <mxPoint x="304.56" y="-1920" as="sourcePoint" />
            <mxPoint x="304.56" y="-1850" as="targetPoint" />
          </mxGeometry>
        </mxCell>
        <mxCell id="kCE3X-bR1YBws0et_Grn-14" value="" style="endArrow=classic;html=1;rounded=0;sketch=1;hachureGap=4;jiggle=2;curveFitting=1;fontFamily=Courier New;exitX=1;exitY=0.5;exitDx=0;exitDy=0;exitPerimeter=0;entryX=0;entryY=0.5;entryDx=0;entryDy=0;fillColor=#eeeeee;strokeColor=#36393d;fontSize=11;fontStyle=1" parent="WIyWlLk6GJQsqaUBKTNV-1" source="kCE3X-bR1YBws0et_Grn-10" target="kCE3X-bR1YBws0et_Grn-16" edge="1">
          <mxGeometry width="50" height="50" relative="1" as="geometry">
            <mxPoint x="400.03" y="-1954.5" as="sourcePoint" />
            <mxPoint x="446.75" y="-1972.5" as="targetPoint" />
          </mxGeometry>
        </mxCell>
        <mxCell id="kCE3X-bR1YBws0et_Grn-15" value="NO" style="text;html=1;align=center;verticalAlign=middle;whiteSpace=wrap;rounded=0;fontFamily=Courier New;fontSize=11;fillColor=none;fontStyle=1;fontColor=#FF432E;" parent="WIyWlLk6GJQsqaUBKTNV-1" vertex="1">
          <mxGeometry x="392.64" y="-1842.5" width="60" height="30" as="geometry" />
        </mxCell>
        <mxCell id="kCE3X-bR1YBws0et_Grn-16" value="&lt;div style=&quot;font-size: 11px;&quot;&gt;결과 list append&lt;/div&gt;&lt;div style=&quot;font-size: 11px;&quot;&gt;하지 않음&lt;/div&gt;" style="rounded=1;whiteSpace=wrap;html=1;absoluteArcSize=1;arcSize=14;strokeWidth=2;sketch=1;hachureGap=4;jiggle=2;curveFitting=1;fontFamily=Courier New;fillColor=#eeeeee;strokeColor=#36393d;fontSize=11;fontStyle=1" parent="WIyWlLk6GJQsqaUBKTNV-1" vertex="1">
          <mxGeometry x="455.56" y="-1842.5" width="139.38" height="70" as="geometry" />
        </mxCell>
        <mxCell id="kCE3X-bR1YBws0et_Grn-17" value="YES" style="text;html=1;align=center;verticalAlign=middle;whiteSpace=wrap;rounded=0;fontFamily=Courier New;fontSize=11;fillColor=none;fontStyle=1;fontColor=#3E17FF;" parent="WIyWlLk6GJQsqaUBKTNV-1" vertex="1">
          <mxGeometry x="314.88" y="-1731" width="60" height="30" as="geometry" />
        </mxCell>
        <mxCell id="kCE3X-bR1YBws0et_Grn-18" value="CF-User-Based&amp;nbsp;&lt;div&gt;강좌번호 6개 추출,&lt;/div&gt;&lt;div&gt;&lt;br&gt;&lt;div style=&quot;font-size: 11px;&quot;&gt;Segmentation&amp;nbsp;&lt;/div&gt;&lt;div style=&quot;font-size: 11px;&quot;&gt;강좌번호 6개 추출&lt;br style=&quot;font-size: 11px;&quot;&gt;&lt;/div&gt;&lt;/div&gt;" style="rounded=1;whiteSpace=wrap;html=1;absoluteArcSize=1;arcSize=14;strokeWidth=2;sketch=1;hachureGap=4;jiggle=2;curveFitting=1;fontFamily=Courier New;fillColor=#eeeeee;strokeColor=#36393d;fontSize=11;fontStyle=1" parent="WIyWlLk6GJQsqaUBKTNV-1" vertex="1">
          <mxGeometry x="206.97" y="-1540" width="178.03" height="90" as="geometry" />
        </mxCell>
        <mxCell id="kCE3X-bR1YBws0et_Grn-19" value="" style="endArrow=classic;html=1;rounded=0;sketch=1;hachureGap=4;jiggle=2;curveFitting=1;fontFamily=Courier New;exitX=0.5;exitY=1;exitDx=0;exitDy=0;fillColor=#eeeeee;strokeColor=#36393d;entryX=0.5;entryY=0;entryDx=0;entryDy=0;fontSize=11;fontStyle=1" parent="WIyWlLk6GJQsqaUBKTNV-1" source="kCE3X-bR1YBws0et_Grn-11" target="kCE3X-bR1YBws0et_Grn-18" edge="1">
          <mxGeometry width="50" height="50" relative="1" as="geometry">
            <mxPoint x="304.56" y="-1725" as="sourcePoint" />
            <mxPoint x="304.56" y="-1660" as="targetPoint" />
          </mxGeometry>
        </mxCell>
        <mxCell id="kCE3X-bR1YBws0et_Grn-22" value="" style="endArrow=classic;html=1;rounded=0;sketch=1;hachureGap=4;jiggle=2;curveFitting=1;fontFamily=Courier New;entryX=0.5;entryY=0;entryDx=0;entryDy=0;fillColor=#eeeeee;strokeColor=#36393d;entryPerimeter=0;fontSize=11;fontStyle=1" parent="WIyWlLk6GJQsqaUBKTNV-1" source="dnPxp3Yq9yOHqBuiGxyi-0" target="kCE3X-bR1YBws0et_Grn-24" edge="1">
          <mxGeometry width="50" height="50" relative="1" as="geometry">
            <mxPoint x="295.0000000000001" y="-1300" as="sourcePoint" />
            <mxPoint x="294.9999999999999" y="-1240" as="targetPoint" />
          </mxGeometry>
        </mxCell>
        <mxCell id="kCE3X-bR1YBws0et_Grn-23" value="" style="endArrow=classic;html=1;rounded=0;sketch=1;hachureGap=4;jiggle=2;curveFitting=1;fontFamily=Courier New;exitX=0.5;exitY=1;exitDx=0;exitDy=0;fillColor=#eeeeee;strokeColor=#36393d;entryX=0.5;entryY=0;entryDx=0;entryDy=0;fontSize=11;fontStyle=1" parent="WIyWlLk6GJQsqaUBKTNV-1" source="kCE3X-bR1YBws0et_Grn-18" target="dnPxp3Yq9yOHqBuiGxyi-0" edge="1">
          <mxGeometry width="50" height="50" relative="1" as="geometry">
            <mxPoint x="304.56" y="-1590" as="sourcePoint" />
            <mxPoint x="296.17000000000013" y="-1410" as="targetPoint" />
          </mxGeometry>
        </mxCell>
        <mxCell id="kCE3X-bR1YBws0et_Grn-24" value="learning history&lt;div&gt;API 종료&lt;/div&gt;" style="strokeWidth=2;html=1;shape=mxgraph.flowchart.terminator;whiteSpace=wrap;sketch=1;hachureGap=4;jiggle=2;curveFitting=1;fontFamily=Courier New;labelBackgroundColor=none;fontStyle=1;fillColor=#eeeeee;strokeColor=#36393d;fontSize=11;" parent="WIyWlLk6GJQsqaUBKTNV-1" vertex="1">
          <mxGeometry x="218.63" y="-1210" width="156.25" height="60" as="geometry" />
        </mxCell>
        <mxCell id="dnPxp3Yq9yOHqBuiGxyi-0" value="&lt;span style=&quot;font-size: 11px;&quot;&gt;추천 강좌번호&lt;/span&gt;&lt;div style=&quot;font-size: 11px;&quot;&gt;최대 12개&amp;nbsp;&lt;span style=&quot;background-color: initial; font-size: 11px;&quot;&gt;List Return&lt;/span&gt;&lt;/div&gt;" style="shape=parallelogram;html=1;strokeWidth=2;perimeter=parallelogramPerimeter;whiteSpace=wrap;rounded=1;arcSize=12;size=0.23;fillColor=#eeeeee;strokeColor=#36393d;sketch=1;curveFitting=1;jiggle=2;fontFamily=Courier New;fontSize=11;fontStyle=1" parent="WIyWlLk6GJQsqaUBKTNV-1" vertex="1">
          <mxGeometry x="205" y="-1370" width="180" height="90" as="geometry" />
        </mxCell>
        <mxCell id="dnPxp3Yq9yOHqBuiGxyi-2" value="" style="strokeWidth=2;html=1;shape=mxgraph.flowchart.annotation_2;align=left;labelPosition=right;pointerEvents=1;fontFamily=Courier New;fontSize=11;fontStyle=1" parent="WIyWlLk6GJQsqaUBKTNV-1" vertex="1">
          <mxGeometry x="385.09000000000003" y="-1540" width="75.1" height="60" as="geometry" />
        </mxCell>
        <mxCell id="dnPxp3Yq9yOHqBuiGxyi-4" value="&lt;div style=&quot;font-size: 11px;&quot;&gt;&lt;span style=&quot;background-color: initial; font-size: 11px;&quot;&gt;각 6개씩 추출된 강좌번호는 Vertical line으로 구분하여 return 한다.&lt;/span&gt;&lt;/div&gt;" style="text;whiteSpace=wrap;html=1;align=left;fontFamily=Courier New;fontSize=11;fontStyle=1" parent="WIyWlLk6GJQsqaUBKTNV-1" vertex="1">
          <mxGeometry x="431.56" y="-1525" width="280" height="41" as="geometry" />
        </mxCell>
        <mxCell id="O0idcP7yzNyjJ1bOO-zf-1" value="" style="strokeWidth=2;html=1;shape=mxgraph.flowchart.annotation_2;align=left;labelPosition=right;pointerEvents=1;sketch=1;hachureGap=4;jiggle=2;curveFitting=1;fontFamily=Architects Daughter;fontSource=https%3A%2F%2Ffonts.googleapis.com%2Fcss%3Ffamily%3DArchitects%2BDaughter;" vertex="1" parent="WIyWlLk6GJQsqaUBKTNV-1">
          <mxGeometry x="60" y="-2182.5" width="120" height="100" as="geometry" />
        </mxCell>
      </root>
    </mxGraphModel>
  </diagram>
</mxfile>
